<?xml version="1.0" standalone="no"?>
<svg xmlns:xlink="http://www.w3.org/1999/xlink" id="wave" style="transform:rotate(0deg); transition: 0.3s" viewBox="0 0 1440 170" version="1.1" xmlns="http://www.w3.org/2000/svg"><defs><linearGradient id="sw-gradient-0" x1="0" x2="0" y1="1" y2="0"><stop stop-color="rgba(255, 175, 204, 1)" offset="0%"/><stop stop-color="rgba(255, 175, 204, 1)" offset="100%"/></linearGradient></defs><path style="transform:translate(0, 0px); opacity:1" fill="url(#sw-gradient-0)" d="M0,17L34.3,22.7C68.6,28,137,40,206,59.5C274.3,79,343,108,411,119C480,130,549,125,617,110.5C685.7,96,754,74,823,65.2C891.4,57,960,62,1029,65.2C1097.1,68,1166,68,1234,79.3C1302.9,91,1371,113,1440,116.2C1508.6,119,1577,102,1646,82.2C1714.3,62,1783,40,1851,31.2C1920,23,1989,28,2057,28.3C2125.7,28,2194,23,2263,28.3C2331.4,34,2400,51,2469,51C2537.1,51,2606,34,2674,39.7C2742.9,45,2811,74,2880,96.3C2948.6,119,3017,136,3086,133.2C3154.3,130,3223,108,3291,107.7C3360,108,3429,130,3497,136C3565.7,142,3634,130,3703,121.8C3771.4,113,3840,108,3909,99.2C3977.1,91,4046,79,4114,62.3C4182.9,45,4251,23,4320,19.8C4388.6,17,4457,34,4526,34C4594.3,34,4663,17,4731,31.2C4800,45,4869,91,4903,113.3L4937.1,136L4937.1,170L4902.9,170C4868.6,170,4800,170,4731,170C4662.9,170,4594,170,4526,170C4457.1,170,4389,170,4320,170C4251.4,170,4183,170,4114,170C4045.7,170,3977,170,3909,170C3840,170,3771,170,3703,170C3634.3,170,3566,170,3497,170C3428.6,170,3360,170,3291,170C3222.9,170,3154,170,3086,170C3017.1,170,2949,170,2880,170C2811.4,170,2743,170,2674,170C2605.7,170,2537,170,2469,170C2400,170,2331,170,2263,170C2194.3,170,2126,170,2057,170C1988.6,170,1920,170,1851,170C1782.9,170,1714,170,1646,170C1577.1,170,1509,170,1440,170C1371.4,170,1303,170,1234,170C1165.7,170,1097,170,1029,170C960,170,891,170,823,170C754.3,170,686,170,617,170C548.6,170,480,170,411,170C342.9,170,274,170,206,170C137.1,170,69,170,34,170L0,170Z"/><defs><linearGradient id="sw-gradient-1" x1="0" x2="0" y1="1" y2="0"><stop stop-color="rgba(162, 210, 255, 1)" offset="0%"/><stop stop-color="rgba(162, 210, 255, 1)" offset="100%"/></linearGradient></defs><path style="transform:translate(0, 50px); opacity:0.9" fill="url(#sw-gradient-1)" d="M0,17L34.3,34C68.6,51,137,85,206,87.8C274.3,91,343,62,411,45.3C480,28,549,23,617,34C685.7,45,754,74,823,82.2C891.4,91,960,79,1029,62.3C1097.1,45,1166,23,1234,28.3C1302.9,34,1371,68,1440,82.2C1508.6,96,1577,91,1646,85C1714.3,79,1783,74,1851,79.3C1920,85,1989,102,2057,113.3C2125.7,125,2194,130,2263,133.2C2331.4,136,2400,136,2469,138.8C2537.1,142,2606,147,2674,127.5C2742.9,108,2811,62,2880,56.7C2948.6,51,3017,85,3086,90.7C3154.3,96,3223,74,3291,73.7C3360,74,3429,96,3497,113.3C3565.7,130,3634,142,3703,130.3C3771.4,119,3840,85,3909,73.7C3977.1,62,4046,74,4114,87.8C4182.9,102,4251,119,4320,127.5C4388.6,136,4457,136,4526,136C4594.3,136,4663,136,4731,127.5C4800,119,4869,102,4903,93.5L4937.1,85L4937.1,170L4902.9,170C4868.6,170,4800,170,4731,170C4662.9,170,4594,170,4526,170C4457.1,170,4389,170,4320,170C4251.4,170,4183,170,4114,170C4045.7,170,3977,170,3909,170C3840,170,3771,170,3703,170C3634.3,170,3566,170,3497,170C3428.6,170,3360,170,3291,170C3222.9,170,3154,170,3086,170C3017.1,170,2949,170,2880,170C2811.4,170,2743,170,2674,170C2605.7,170,2537,170,2469,170C2400,170,2331,170,2263,170C2194.3,170,2126,170,2057,170C1988.6,170,1920,170,1851,170C1782.9,170,1714,170,1646,170C1577.1,170,1509,170,1440,170C1371.4,170,1303,170,1234,170C1165.7,170,1097,170,1029,170C960,170,891,170,823,170C754.3,170,686,170,617,170C548.6,170,480,170,411,170C342.9,170,274,170,206,170C137.1,170,69,170,34,170L0,170Z"/></svg>