<?xml version="1.0" standalone="no"?>
<svg xmlns:xlink="http://www.w3.org/1999/xlink" id="wave" style="transform:rotate(0deg); transition: 0.3s" viewBox="0 0 1440 490" version="1.1" xmlns="http://www.w3.org/2000/svg"><defs><linearGradient id="sw-gradient-0" x1="0" x2="0" y1="1" y2="0"><stop stop-color="rgba(21, 119, 255, 1)" offset="0%"/><stop stop-color="rgba(51, 51, 51, 1)" offset="100%"/></linearGradient></defs><path style="transform:translate(0, 0px); opacity:1" fill="url(#sw-gradient-0)" d="M0,0L80,8.2C160,16,320,33,480,89.8C640,147,800,245,960,277.7C1120,310,1280,278,1440,228.7C1600,180,1760,114,1920,81.7C2080,49,2240,49,2400,65.3C2560,82,2720,114,2880,171.5C3040,229,3200,310,3360,294C3520,278,3680,163,3840,155.2C4000,147,4160,245,4320,277.7C4480,310,4640,278,4800,253.2C4960,229,5120,212,5280,204.2C5440,196,5600,196,5760,179.7C5920,163,6080,131,6240,106.2C6400,82,6560,65,6720,106.2C6880,147,7040,245,7200,302.2C7360,359,7520,376,7680,367.5C7840,359,8000,327,8160,302.2C8320,278,8480,261,8640,236.8C8800,212,8960,180,9120,155.2C9280,131,9440,114,9600,147C9760,180,9920,261,10080,285.8C10240,310,10400,278,10560,220.5C10720,163,10880,82,11040,114.3C11200,147,11360,294,11440,367.5L11520,441L11520,490L11440,490C11360,490,11200,490,11040,490C10880,490,10720,490,10560,490C10400,490,10240,490,10080,490C9920,490,9760,490,9600,490C9440,490,9280,490,9120,490C8960,490,8800,490,8640,490C8480,490,8320,490,8160,490C8000,490,7840,490,7680,490C7520,490,7360,490,7200,490C7040,490,6880,490,6720,490C6560,490,6400,490,6240,490C6080,490,5920,490,5760,490C5600,490,5440,490,5280,490C5120,490,4960,490,4800,490C4640,490,4480,490,4320,490C4160,490,4000,490,3840,490C3680,490,3520,490,3360,490C3200,490,3040,490,2880,490C2720,490,2560,490,2400,490C2240,490,2080,490,1920,490C1760,490,1600,490,1440,490C1280,490,1120,490,960,490C800,490,640,490,480,490C320,490,160,490,80,490L0,490Z"/></svg>