<?xml version="1.0" standalone="no"?>
<svg xmlns:xlink="http://www.w3.org/1999/xlink" id="wave" style="transform:rotate(0deg); transition: 0.3s" viewBox="0 0 1440 490" version="1.1" xmlns="http://www.w3.org/2000/svg"><defs><linearGradient id="sw-gradient-0" x1="0" x2="0" y1="1" y2="0"><stop stop-color="rgba(51, 51, 51, 1)" offset="0%"/><stop stop-color="rgba(21, 119, 255, 1)" offset="100%"/></linearGradient></defs><path style="transform:translate(0, 0px); opacity:1" fill="url(#sw-gradient-0)" d="M0,0L34.3,8.2C68.6,16,137,33,206,49C274.3,65,343,82,411,73.5C480,65,549,33,617,81.7C685.7,131,754,261,823,285.8C891.4,310,960,229,1029,204.2C1097.1,180,1166,212,1234,204.2C1302.9,196,1371,147,1440,179.7C1508.6,212,1577,327,1646,351.2C1714.3,376,1783,310,1851,245C1920,180,1989,114,2057,147C2125.7,180,2194,310,2263,326.7C2331.4,343,2400,245,2469,228.7C2537.1,212,2606,278,2674,285.8C2742.9,294,2811,245,2880,204.2C2948.6,163,3017,131,3086,122.5C3154.3,114,3223,131,3291,130.7C3360,131,3429,114,3497,89.8C3565.7,65,3634,33,3703,65.3C3771.4,98,3840,196,3909,212.3C3977.1,229,4046,163,4114,171.5C4182.9,180,4251,261,4320,245C4388.6,229,4457,114,4526,106.2C4594.3,98,4663,196,4731,220.5C4800,245,4869,196,4903,171.5L4937.1,147L4937.1,490L4902.9,490C4868.6,490,4800,490,4731,490C4662.9,490,4594,490,4526,490C4457.1,490,4389,490,4320,490C4251.4,490,4183,490,4114,490C4045.7,490,3977,490,3909,490C3840,490,3771,490,3703,490C3634.3,490,3566,490,3497,490C3428.6,490,3360,490,3291,490C3222.9,490,3154,490,3086,490C3017.1,490,2949,490,2880,490C2811.4,490,2743,490,2674,490C2605.7,490,2537,490,2469,490C2400,490,2331,490,2263,490C2194.3,490,2126,490,2057,490C1988.6,490,1920,490,1851,490C1782.9,490,1714,490,1646,490C1577.1,490,1509,490,1440,490C1371.4,490,1303,490,1234,490C1165.7,490,1097,490,1029,490C960,490,891,490,823,490C754.3,490,686,490,617,490C548.6,490,480,490,411,490C342.9,490,274,490,206,490C137.1,490,69,490,34,490L0,490Z"/></svg>