<?xml version="1.0" standalone="no"?>
<svg xmlns:xlink="http://www.w3.org/1999/xlink" id="wave" style="transform:rotate(0deg); transition: 0.3s" viewBox="0 0 1440 490" version="1.1" xmlns="http://www.w3.org/2000/svg"><defs><linearGradient id="sw-gradient-0" x1="0" x2="0" y1="1" y2="0"><stop stop-color="rgba(21, 119, 255, 1)" offset="0%"/><stop stop-color="rgba(255, 255, 255, 1)" offset="100%"/></linearGradient></defs><path style="transform:translate(0, 0px); opacity:1" fill="url(#sw-gradient-0)" d="M0,98L80,114.3C160,131,320,163,480,155.2C640,147,800,98,960,122.5C1120,147,1280,245,1440,294C1600,343,1760,343,1920,343C2080,343,2240,343,2400,351.2C2560,359,2720,376,2880,326.7C3040,278,3200,163,3360,122.5C3520,82,3680,114,3840,130.7C4000,147,4160,147,4320,122.5C4480,98,4640,49,4800,32.7C4960,16,5120,33,5280,106.2C5440,180,5600,310,5760,351.2C5920,392,6080,343,6240,285.8C6400,229,6560,163,6720,171.5C6880,180,7040,261,7200,310.3C7360,359,7520,376,7680,383.8C7840,392,8000,392,8160,392C8320,392,8480,392,8640,334.8C8800,278,8960,163,9120,98C9280,33,9440,16,9600,81.7C9760,147,9920,294,10080,302.2C10240,310,10400,180,10560,179.7C10720,180,10880,310,11040,351.2C11200,392,11360,343,11440,318.5L11520,294L11520,490L11440,490C11360,490,11200,490,11040,490C10880,490,10720,490,10560,490C10400,490,10240,490,10080,490C9920,490,9760,490,9600,490C9440,490,9280,490,9120,490C8960,490,8800,490,8640,490C8480,490,8320,490,8160,490C8000,490,7840,490,7680,490C7520,490,7360,490,7200,490C7040,490,6880,490,6720,490C6560,490,6400,490,6240,490C6080,490,5920,490,5760,490C5600,490,5440,490,5280,490C5120,490,4960,490,4800,490C4640,490,4480,490,4320,490C4160,490,4000,490,3840,490C3680,490,3520,490,3360,490C3200,490,3040,490,2880,490C2720,490,2560,490,2400,490C2240,490,2080,490,1920,490C1760,490,1600,490,1440,490C1280,490,1120,490,960,490C800,490,640,490,480,490C320,490,160,490,80,490L0,490Z"/></svg>